{"glyphs":{"0":{"ha":1021,"x_min":0,"x_max":1021,"o":"m 510 1021 q 708 981 615 1021 q 871 872 801 940 q 981 710 940 803 q 1021 511 1021 617 q 981 313 1021 406 q 871 151 940 219 q 708 42 801 82 q 510 1 615 1 q 311 42 404 1 q 149 151 218 82 q 40 313 81 219 q 0 511 0 406 q 40 710 0 617 q 149 872 81 803 q 311 981 218 940 q 510 1021 404 1021 m 510 236 q 617 258 567 236 q 704 317 667 279 q 763 404 742 354 q 785 511 785 454 q 763 618 785 568 q 704 706 742 668 q 617 765 667 743 q 510 786 567 786 q 403 765 453 786 q 315 706 353 743 q 256 618 278 668 q 235 511 235 568 q 256 404 235 454 q 315 317 278 354 q 403 258 353 279 q 510 236 453 236 z "},"1":{"ha":625,"x_min":69,"x_max":556,"o":"m 321 1022 l 556 1022 l 556 0 l 321 0 l 321 650 l 251 564 l 69 713 l 321 1022 z "},"2":{"ha":822,"x_min":69,"x_max":753,"o":"m 753 235 l 753 0 l 69 0 l 69 253 q 253 376 171 314 q 394 497 336 439 q 485 601 453 554 q 517 678 517 649 q 486 753 517 722 q 411 783 456 783 q 336 753 367 783 q 306 678 306 722 l 69 678 q 97 810 69 749 q 170 919 124 872 q 278 992 217 965 q 411 1019 340 1019 q 544 992 482 1019 q 652 919 606 965 q 726 810 699 872 q 753 678 753 749 q 453 235 753 476 l 753 235 z "},"3":{"ha":821,"x_min":69,"x_max":751,"o":"m 558 646 q 637 594 601 625 q 698 523 672 563 q 738 438 724 483 q 751 342 751 392 q 724 208 751 271 q 651 100 697 146 q 544 27 606 54 q 411 0 482 0 q 278 27 340 0 q 169 100 215 54 q 97 208 124 146 q 69 342 69 271 l 304 342 q 335 266 304 297 q 411 235 367 235 q 486 266 456 235 q 517 342 517 297 q 486 415 517 385 q 411 444 456 444 l 257 444 l 257 678 l 369 789 l 93 789 l 93 1024 l 740 1024 l 740 825 l 558 646 z "},"4":{"ha":783,"x_min":69,"x_max":714,"o":"m 479 1022 l 714 1022 l 714 0 l 479 0 l 479 181 l 69 181 l 69 415 l 69 415 l 69 415 l 479 1022 m 353 415 l 479 415 l 479 601 l 353 415 z "},"5":{"ha":821,"x_min":69,"x_max":751,"o":"m 411 0 q 278 27 340 0 q 169 100 215 54 q 97 208 124 146 q 69 342 69 271 l 304 342 q 335 266 304 297 q 411 235 367 235 q 486 266 456 235 q 517 342 517 297 q 486 414 517 385 q 411 443 456 443 l 69 443 l 69 1024 l 706 1024 l 706 789 l 304 789 l 304 678 l 411 678 q 544 651 482 678 q 651 579 606 625 q 724 472 697 533 q 751 342 751 411 q 724 208 751 271 q 651 100 697 146 q 544 27 606 54 q 411 0 482 0 z "},"6":{"ha":829,"x_min":46,"x_max":783,"o":"m 450 736 q 581 699 521 729 q 687 619 642 668 q 758 506 732 569 q 783 369 783 442 q 754 226 783 293 q 675 108 725 158 q 558 29 625 58 q 415 0 492 0 q 272 29 339 0 q 154 108 204 58 q 75 226 104 158 q 46 369 46 293 q 82 528 46 453 l 331 1021 l 594 1021 l 450 736 m 415 236 q 510 275 471 236 q 549 369 549 314 q 538 422 549 397 q 510 465 528 446 q 467 494 492 483 q 415 504 443 504 q 363 494 388 504 q 320 465 339 483 q 291 422 301 446 q 281 369 281 397 q 291 317 281 342 q 320 275 301 293 q 363 247 339 257 q 415 236 388 236 z "},"7":{"ha":778,"x_min":35,"x_max":746,"o":"m 72 0 l 394 785 l 35 785 l 35 1019 l 746 1019 l 326 0 l 72 0 z "},"8":{"ha":724,"x_min":18,"x_max":704,"o":"m 603 586 q 677 476 650 539 q 704 343 704 414 q 677 210 704 272 q 603 101 650 147 q 494 27 557 54 q 361 0 432 0 q 228 27 290 0 q 119 101 165 54 q 45 210 72 147 q 18 343 18 272 q 45 476 18 414 q 119 586 72 539 q 88 657 100 619 q 76 736 76 694 q 99 847 76 794 q 160 938 121 899 q 251 999 199 976 q 361 1021 303 1021 q 472 999 419 1021 q 563 938 524 976 q 624 847 601 899 q 646 736 646 794 q 634 657 646 694 q 603 586 622 619 m 361 786 q 326 772 340 786 q 311 736 311 757 q 326 702 311 717 q 361 688 340 688 q 395 702 381 688 q 410 736 410 717 q 395 772 410 757 q 361 786 381 786 m 361 235 q 438 267 406 235 q 469 343 469 299 q 438 419 469 388 q 361 451 406 451 q 285 419 317 451 q 253 343 253 388 q 285 267 253 299 q 361 235 317 235 z "},"9":{"ha":835,"x_min":47,"x_max":785,"o":"m 381 285 q 250 323 311 292 q 144 403 189 354 q 73 515 99 451 q 47 651 47 579 q 76 795 47 728 q 156 913 106 863 q 273 992 206 963 q 417 1021 340 1021 q 560 992 493 1021 q 676 913 626 963 q 756 795 726 863 q 785 651 785 728 q 750 493 785 569 l 500 0 l 238 0 l 381 285 m 417 786 q 365 776 389 786 q 322 747 340 765 q 292 703 303 728 q 282 651 282 679 q 292 599 282 624 q 322 557 303 575 q 365 528 340 539 q 417 518 389 518 q 511 557 472 518 q 550 651 550 596 q 540 703 550 679 q 511 747 529 728 q 469 776 493 765 q 417 786 444 786 z "},"\u0000":{"ha":0,"x_min":0,"x_max":0,"o":""},"\r":{"ha":236,"x_min":0,"x_max":0,"o":""}," ":{"ha":236,"x_min":0,"x_max":0,"o":""},"%":{"ha":1251,"x_min":65,"x_max":1186,"o":"m 1117 879 l 310 -10 l 136 149 l 942 1036 l 1117 879 m 314 542 q 227 558 268 542 q 153 601 186 574 q 99 669 121 629 q 72 754 78 708 q 78 851 65 804 q 120 935 92 897 q 190 997 149 972 q 282 1028 232 1021 q 299 1030 290 1029 q 314 1031 307 1031 q 401 1015 360 1031 q 474 970 442 999 q 528 903 507 942 q 556 818 550 864 q 549 722 563 768 q 508 638 536 675 q 438 575 479 600 q 346 544 396 550 q 329 542 338 543 q 314 542 321 542 m 307 835 q 275 815 288 832 q 265 779 263 799 q 281 749 268 761 q 314 738 294 738 l 319 738 q 352 756 340 740 q 361 792 364 772 q 345 823 358 811 q 314 835 332 835 l 307 835 m 1179 278 q 1173 181 1186 228 q 1131 97 1160 135 q 1061 35 1103 60 q 969 4 1019 10 q 953 2 961 3 q 936 1 944 1 q 849 17 890 1 q 776 61 808 33 q 722 128 744 89 q 694 214 700 168 q 701 310 688 264 q 744 394 715 357 q 814 456 772 432 q 906 488 856 481 q 921 490 913 489 q 938 490 929 490 q 1024 474 983 490 q 1097 430 1065 458 q 1151 363 1129 401 q 1179 278 1172 324 m 943 197 q 975 216 963 200 q 985 251 988 232 q 969 283 982 271 q 938 294 956 294 q 931 293 933 294 q 899 274 911 290 q 889 239 886 258 q 905 209 892 221 q 936 197 918 197 l 943 197 z "},"&":{"ha":979,"x_min":67,"x_max":910,"o":"m 382 0 q 367 0 375 0 q 353 1 360 0 q 189 60 257 8 q 89 199 121 111 q 71 315 67 261 q 97 414 75 368 q 154 499 119 460 q 229 572 189 539 q 192 616 210 592 q 163 671 175 640 q 142 794 138 731 q 182 914 147 857 q 276 1007 218 972 q 401 1047 333 1042 q 553 1016 483 1053 q 663 908 622 979 q 699 764 701 840 q 651 622 696 688 q 617 581 636 600 q 575 542 597 561 l 910 169 l 735 13 l 658 97 q 528 26 600 53 q 382 0 456 0 m 388 399 q 320 332 339 360 q 311 278 301 304 q 330 249 318 260 q 371 236 342 239 q 436 244 401 233 q 500 272 471 254 l 388 399 m 422 813 l 419 813 q 397 804 406 811 q 382 790 388 797 q 376 771 375 779 q 379 760 378 763 q 394 740 382 753 q 417 717 406 728 l 417 715 q 457 757 446 739 q 463 769 460 760 q 458 792 467 778 q 447 803 456 794 q 422 813 439 813 z "},"'":{"ha":374,"x_min":69,"x_max":304,"o":"m 69 1018 l 304 1018 l 304 551 l 69 551 l 69 1018 z "},"(":{"ha":564,"x_min":69,"x_max":494,"o":"m 208 0 q 106 246 142 115 q 69 519 69 376 q 105 790 69 660 q 206 1033 140 919 l 489 1033 q 353 797 401 928 q 304 519 304 667 q 355 238 304 371 q 494 0 406 106 l 208 0 z "},")":{"ha":564,"x_min":69,"x_max":494,"o":"m 356 1033 q 458 788 422 918 q 494 514 494 657 q 459 244 494 374 q 358 0 424 114 l 74 0 q 210 236 161 106 q 258 514 258 367 q 208 795 258 663 q 69 1033 158 928 l 356 1033 z "},"*":{"ha":711,"x_min":69,"x_max":642,"o":"m 642 851 l 522 732 l 642 613 l 475 446 l 356 565 l 236 446 l 69 613 l 189 732 l 69 851 l 236 1018 l 356 899 l 475 1018 l 642 851 z "},"+":{"ha":808,"x_min":69,"x_max":739,"o":"m 739 626 l 739 392 l 521 392 l 521 175 l 286 175 l 286 392 l 69 393 l 69 628 l 286 628 l 286 844 l 521 844 l 521 628 l 739 626 z "},",":{"ha":354,"x_min":0,"x_max":313,"o":"m 0 -149 l 113 126 l 313 126 l 200 -149 l 0 -149 z "},"-":{"ha":808,"x_min":69,"x_max":739,"o":"m 739 392 l 69 393 l 69 628 l 739 626 l 739 392 z "},".":{"ha":317,"x_min":38,"x_max":279,"o":"m 279 121 q 244 35 279 71 q 158 0 208 0 q 73 35 108 0 q 38 121 38 71 q 73 206 38 171 q 158 242 108 242 q 244 206 208 242 q 279 121 279 171 z "},"/":{"ha":511,"x_min":69,"x_max":442,"o":"m 307 0 l 69 0 l 204 1032 l 442 1032 l 307 0 z "},"$":{"ha":735,"x_min":69,"x_max":665,"o":"m 496 619 q 620 514 575 583 q 665 358 665 444 q 620 204 665 274 q 496 99 575 135 q 485 94 490 96 q 472 89 479 92 l 472 0 l 263 0 l 263 90 q 206 118 235 100 q 106 226 142 158 q 69 372 69 293 l 304 371 q 315 334 304 347 q 333 315 325 321 q 358 306 340 311 q 399 313 375 301 q 425 336 419 322 q 431 358 431 350 q 425 382 431 368 q 399 406 419 396 q 374 415 388 411 q 344 425 360 419 q 286 445 317 433 q 224 476 256 457 q 151 543 181 503 q 110 630 122 583 q 101 725 97 676 q 129 819 106 774 q 263 940 174 906 l 263 1031 l 472 1031 l 472 940 q 594 845 549 910 q 639 699 639 781 l 404 699 q 401 710 404 701 q 379 724 399 719 q 360 725 375 725 q 338 711 344 725 q 336 692 333 703 q 349 675 339 682 q 379 662 361 668 q 417 649 397 656 q 455 635 435 642 q 496 619 475 629 z "},":":{"ha":382,"x_min":69,"x_max":313,"o":"m 190 556 q 105 591 140 556 q 69 676 69 626 q 105 763 69 728 q 190 799 140 799 q 277 763 242 799 q 313 676 313 728 q 277 591 313 626 q 190 556 242 556 m 190 464 q 277 428 242 464 q 313 343 313 393 q 277 256 313 292 q 190 221 242 221 q 105 256 140 221 q 69 343 69 292 q 105 428 69 393 q 190 464 140 464 z "},";":{"ha":451,"x_min":69,"x_max":382,"o":"m 382 463 l 269 188 l 69 188 l 182 463 l 382 463 m 254 554 q 167 590 203 554 q 132 676 132 625 q 167 762 132 726 q 254 797 203 797 q 340 762 304 797 q 375 676 375 726 q 340 590 375 625 q 254 554 304 554 z "},"<":{"ha":842,"x_min":69,"x_max":772,"o":"m 69 619 l 676 890 l 772 676 l 400 510 l 772 343 l 676 129 l 69 400 l 69 619 z "},"=":{"ha":808,"x_min":69,"x_max":739,"o":"m 739 817 l 739 582 l 69 582 l 69 817 l 739 817 m 69 203 l 69 438 l 739 438 l 739 203 l 69 203 z "},">":{"ha":842,"x_min":69,"x_max":772,"o":"m 772 400 l 165 129 l 69 343 l 442 510 l 69 676 l 165 890 l 772 619 l 772 400 z "},"?":{"ha":811,"x_min":69,"x_max":747,"o":"m 740 726 q 704 556 747 638 q 576 414 661 475 q 543 369 557 400 q 529 311 529 339 l 294 311 q 305 395 294 353 q 334 476 315 438 q 380 548 353 515 q 439 604 407 581 q 506 711 510 656 q 490 753 504 733 q 451 785 475 772 q 397 796 422 801 q 360 782 372 790 q 319 741 333 767 q 304 683 304 715 l 304 613 l 69 613 l 69 683 q 115 857 69 778 q 239 985 160 936 q 401 1031 315 1029 q 564 992 486 1033 q 688 880 642 950 q 740 726 735 810 m 413 238 q 496 203 461 238 q 531 118 531 168 q 496 35 531 69 q 413 0 461 0 q 329 35 364 0 q 294 118 294 69 q 329 203 294 168 q 413 238 364 238 z "},"@":{"ha":1069,"x_min":18,"x_max":1050,"o":"m 807 490 q 827 499 819 490 q 835 519 835 507 q 809 635 833 581 q 743 728 785 689 q 647 791 701 768 q 531 813 592 814 q 321 722 407 810 q 257 624 279 679 q 236 510 235 569 q 260 395 238 449 q 328 300 283 342 q 425 236 371 258 q 540 215 479 214 l 543 215 q 562 217 547 215 q 599 224 576 218 q 649 242 621 231 q 710 274 678 254 l 825 92 q 725 40 772 58 q 640 13 678 22 q 576 2 601 4 q 542 0 550 0 q 475 4 508 0 q 178 144 303 24 q 63 309 103 217 q 21 506 24 401 q 56 703 18 610 q 165 872 94 797 q 330 987 238 947 q 526 1028 422 1026 q 726 990 632 1029 q 892 883 821 951 q 1006 721 964 814 q 1050 522 1047 628 q 1031 433 1050 474 q 978 361 1011 392 q 903 313 946 331 q 814 294 861 294 q 799 294 807 294 q 783 296 790 294 q 693 328 733 303 q 539 269 628 272 q 522 270 531 269 q 507 271 514 271 q 422 297 461 276 q 354 350 383 318 q 308 423 325 382 q 290 510 292 464 q 308 606 290 561 q 359 685 326 651 q 436 738 392 718 q 532 758 481 758 q 547 758 539 758 q 564 757 556 758 q 647 731 608 751 q 715 679 686 711 q 762 606 744 647 q 779 518 779 564 l 779 517 q 807 490 782 490 m 536 465 q 570 481 556 467 q 583 515 585 496 q 572 547 583 533 q 542 563 560 560 l 535 563 q 501 548 515 563 q 486 514 486 533 q 499 482 488 494 q 529 467 511 469 q 536 465 532 465 z "},"B":{"ha":774,"x_min":69,"x_max":758,"o":"m 618 614 q 721 497 683 565 q 758 347 758 428 q 728 212 758 275 q 644 101 697 149 q 519 27 590 54 q 368 0 449 0 l 69 0 l 69 1024 l 340 1022 q 461 1000 404 1022 q 561 940 518 978 q 628 851 604 901 q 653 742 653 800 q 618 614 653 672 m 304 788 l 304 694 l 342 694 q 397 711 376 696 q 418 742 418 726 q 397 772 418 756 q 340 788 376 788 l 304 788 m 368 236 q 427 245 399 236 q 477 269 456 254 q 511 305 499 285 q 524 347 524 325 q 511 390 524 369 q 477 426 499 411 q 427 451 456 442 q 368 460 399 460 l 343 460 l 340 460 l 304 460 l 304 236 l 368 236 z "},"C":{"ha":871,"x_min":0,"x_max":871,"o":"m 510 1 q 317 38 411 1 q 149 150 224 75 q 38 316 76 224 q 0 511 0 408 q 38 708 0 615 q 149 872 76 800 q 318 985 224 947 q 510 1022 413 1022 q 702 985 608 1022 q 871 872 796 947 l 706 707 q 614 767 665 747 q 510 788 563 788 q 406 767 457 788 q 315 707 356 747 q 256 617 276 667 q 235 511 235 567 q 256 406 235 456 q 315 317 276 357 q 406 256 356 276 q 510 236 457 236 q 614 256 563 236 q 706 317 665 276 l 871 150 q 703 38 796 75 q 510 1 610 1 z "},"D":{"ha":746,"x_min":38,"x_max":761,"o":"m 272 1024 q 463 975 374 1018 q 619 863 553 932 q 723 701 685 793 q 761 506 761 610 q 724 313 761 403 q 620 156 686 224 q 465 47 554 88 q 272 0 376 6 l 38 0 l 38 1025 l 272 1025 l 272 1024 m 272 236 q 373 265 326 242 q 453 323 419 288 q 507 406 488 358 q 526 506 526 453 q 507 609 526 560 q 453 697 488 658 q 372 759 418 735 q 272 789 326 783 l 272 236 z "},"E":{"ha":760,"x_min":54,"x_max":708,"o":"m 708 785 l 289 785 l 289 631 l 629 631 l 629 396 l 289 396 l 289 235 l 708 235 l 708 0 l 54 0 l 54 1018 l 708 1019 l 708 785 z "},"F":{"ha":713,"x_min":69,"x_max":685,"o":"m 685 785 l 304 785 l 304 631 l 606 631 l 606 396 l 304 396 l 304 0 l 69 0 l 69 1019 l 685 1019 l 685 785 z "},"G":{"ha":940,"x_min":-10,"x_max":899,"o":"m 899 571 l 899 0 l 663 0 l 663 25 q 583 5 624 11 q 501 -1 542 -1 q 308 36 403 -1 q 139 149 214 74 q 27 317 64 224 q -10 510 -10 411 q 27 703 -10 608 q 139 872 64 797 q 308 985 214 947 q 501 1022 403 1022 q 694 985 600 1022 q 864 872 789 947 l 697 706 q 606 766 657 746 q 501 786 554 786 q 397 766 449 786 q 306 706 346 746 q 244 614 265 665 q 224 510 224 563 q 244 406 224 457 q 306 314 265 354 q 387 258 342 278 q 480 234 432 238 q 575 243 528 231 q 663 285 622 256 l 663 336 l 458 336 l 458 571 l 899 571 z "},"H":{"ha":858,"x_min":46,"x_max":810,"o":"m 575 1019 l 810 1019 l 810 0 l 575 0 l 575 385 l 281 385 l 281 0 l 46 0 l 46 1019 l 281 1019 l 281 619 l 575 619 l 575 1019 z "},"I":{"ha":374,"x_min":69,"x_max":304,"o":"m 304 0 l 69 0 l 69 1021 l 304 1021 l 304 0 z "},"J":{"ha":832,"x_min":-12,"x_max":763,"o":"m 763 1036 l 763 385 q 731 234 763 304 q 648 112 700 164 q 526 30 596 60 q 376 0 456 0 l 372 0 q 224 31 293 1 q 99 117 154 61 q 16 242 44 172 q -11 392 -12 313 l 224 389 q 267 281 224 326 q 375 235 313 235 q 433 246 406 235 q 482 278 461 257 q 515 326 503 299 q 528 386 528 354 l 528 1036 l 763 1036 z "},"K":{"ha":917,"x_min":69,"x_max":971,"o":"m 971 1021 l 447 510 l 971 0 l 632 0 l 304 321 l 304 0 l 69 0 l 69 1021 l 304 1021 l 304 699 l 633 1021 l 971 1021 z "},"L":{"ha":703,"x_min":69,"x_max":676,"o":"m 676 0 l 69 0 l 69 1021 l 304 1021 l 304 235 l 676 235 l 676 0 z "},"M":{"ha":1053,"x_min":1,"x_max":1051,"o":"m 750 1021 l 992 1021 l 1051 0 l 817 0 l 792 417 l 650 0 l 415 0 l 265 433 l 238 0 l 1 0 l 67 1021 l 308 1021 l 532 382 l 750 1021 z "},"N":{"ha":951,"x_min":69,"x_max":892,"o":"m 657 1019 l 892 1019 l 892 0 l 638 0 l 304 594 l 304 0 l 69 0 l 69 1017 l 325 1017 l 657 424 l 657 1019 z "},"O":{"ha":1021,"x_min":0,"x_max":1021,"o":"m 510 1021 q 708 981 615 1021 q 871 872 801 940 q 981 710 940 803 q 1021 511 1021 617 q 981 313 1021 406 q 871 151 940 219 q 708 42 801 82 q 510 1 615 1 q 311 42 404 1 q 149 151 218 82 q 40 313 81 219 q 0 511 0 406 q 40 710 0 617 q 149 872 81 803 q 311 981 218 940 q 510 1021 404 1021 m 510 236 q 617 258 567 236 q 704 317 667 279 q 763 404 742 354 q 785 511 785 454 q 763 618 785 568 q 704 706 742 668 q 617 765 667 743 q 510 786 567 786 q 403 765 453 786 q 315 706 353 743 q 256 618 278 668 q 235 511 235 568 q 256 404 235 454 q 315 317 278 354 q 403 258 353 279 q 510 236 453 236 z "},"P":{"ha":794,"x_min":69,"x_max":725,"o":"m 725 590 q 692 426 725 503 q 602 290 660 349 q 468 198 544 232 q 304 163 392 164 l 304 0 l 69 0 l 69 1019 l 304 1019 q 468 983 392 1018 q 602 890 544 949 q 692 755 660 832 q 725 590 725 678 m 304 397 q 377 415 343 399 q 436 456 411 431 q 476 517 461 482 q 490 590 490 551 q 476 664 490 629 q 436 724 461 699 q 377 766 411 750 q 304 783 343 782 l 304 397 z "},"Q":{"ha":988,"x_min":-15,"x_max":1001,"o":"m 1001 510 q 963 315 1001 406 q 856 154 924 224 l 915 68 l 722 -65 l 657 28 q 577 8 618 15 q 493 1 536 1 q 295 42 388 1 q 134 151 203 82 q 25 312 65 219 q -15 510 -15 404 q 25 708 -15 615 q 134 869 65 800 q 295 978 203 938 q 493 1018 388 1018 q 691 978 599 1018 q 852 869 783 938 q 961 708 921 800 q 1001 510 1001 615 m 493 236 q 514 238 507 236 l 394 411 l 589 544 l 718 356 q 754 427 742 388 q 767 510 767 467 q 745 615 767 565 q 687 703 724 665 q 600 762 650 740 q 493 783 550 783 q 386 762 436 783 q 299 703 336 740 q 241 615 263 665 q 219 510 219 565 q 241 403 219 453 q 299 316 263 353 q 386 258 336 279 q 493 236 436 236 z "},"R":{"ha":851,"x_min":69,"x_max":818,"o":"m 378 264 q 342 260 360 261 q 304 257 324 258 l 304 0 l 69 0 l 69 1017 l 304 1017 q 468 985 392 1015 q 602 903 544 954 q 692 783 660 851 q 725 638 725 715 q 690 485 725 556 q 593 364 656 415 l 818 0 l 542 0 l 378 264 m 304 493 q 376 506 342 494 q 435 538 410 518 q 476 583 461 557 q 490 638 490 608 q 476 692 490 667 q 435 736 461 717 q 376 767 410 756 q 304 781 342 779 l 304 493 z "},"S":{"ha":746,"x_min":26,"x_max":717,"o":"m 372 -19 q 276 -6 324 -19 q 185 35 228 7 q 68 160 110 83 q 26 329 26 238 l 261 329 q 279 265 261 288 q 311 233 297 242 q 365 215 336 217 q 422 226 394 214 q 453 247 442 235 q 472 272 465 260 q 479 294 478 283 q 481 313 481 306 q 479 331 481 319 q 472 354 478 342 q 453 378 465 367 q 422 400 442 390 q 390 413 407 407 q 353 425 372 418 q 281 450 318 436 q 206 488 243 464 q 124 564 157 518 q 76 663 90 610 q 66 772 61 715 q 97 879 71 828 q 160 961 122 926 q 243 1016 197 996 q 342 1040 289 1036 q 449 1031 394 1044 q 544 991 501 1018 q 619 926 588 964 q 667 840 650 888 q 683 742 683 793 l 449 742 q 428 786 449 774 q 393 803 408 799 q 380 805 390 803 q 356 805 369 807 q 329 795 343 803 q 307 771 315 788 q 303 724 296 749 q 331 686 310 700 q 374 666 350 675 q 424 649 397 657 q 472 633 447 642 q 521 614 496 625 q 665 492 613 572 q 717 313 717 411 q 665 135 717 215 q 521 13 613 54 q 447 -12 485 -4 q 372 -19 410 -19 z "},"T":{"ha":685,"x_min":29,"x_max":654,"o":"m 654 1024 l 654 788 l 458 788 l 458 0 l 224 0 l 224 788 l 29 788 l 29 1024 l 654 1024 z "},"U":{"ha":914,"x_min":69,"x_max":844,"o":"m 457 0 q 310 28 379 0 q 186 110 240 57 q 101 235 131 165 q 69 383 71 304 l 69 1021 l 304 1021 l 304 385 q 350 278 304 324 q 458 235 396 235 q 517 247 489 235 q 565 281 544 260 q 597 329 586 301 q 608 389 608 357 l 608 1021 l 843 1021 l 843 390 q 815 240 844 311 q 733 117 785 169 q 610 33 681 64 q 461 0 540 1 l 457 0 z "},"V":{"ha":781,"x_min":-57,"x_max":842,"o":"m 593 1028 l 842 1028 l 494 0 l 272 0 l -57 1028 l 190 1028 l 386 397 l 593 1028 z "},"W":{"ha":1274,"x_min":-42,"x_max":1315,"o":"m 1069 1026 l 1315 1026 l 1014 0 l 782 0 l 647 511 l 531 0 l 297 0 l -42 1026 l 206 1026 l 394 458 l 524 1026 l 754 1026 l 904 461 l 1069 1026 z "},"X":{"ha":921,"x_min":0,"x_max":919,"o":"m 893 1028 l 593 531 l 919 0 l 643 0 l 457 303 l 274 0 l 0 0 l 318 529 l 13 1028 l 288 1028 l 456 756 l 618 1028 l 893 1028 z "},"Y":{"ha":969,"x_min":-3,"x_max":900,"o":"m 228 0 l 346 289 l -3 1028 l 257 1028 l 467 585 l 646 1028 l 900 1028 l 482 0 l 228 0 z "},"Z":{"ha":911,"x_min":22,"x_max":842,"o":"m 836 0 l 22 0 l 449 792 l 78 792 l 78 1028 l 842 1026 l 415 235 l 836 235 l 836 0 z "},"[":{"ha":490,"x_min":69,"x_max":421,"o":"m 421 0 l 69 0 l 69 1021 l 421 1021 l 421 786 l 304 786 l 304 235 l 421 235 l 421 0 z "},"\\":{"ha":511,"x_min":69,"x_max":442,"o":"m 204 0 l 69 1032 l 307 1032 l 442 0 l 204 0 z "},"]":{"ha":490,"x_min":69,"x_max":421,"o":"m 421 0 l 69 0 l 69 235 l 186 235 l 186 786 l 69 786 l 69 1021 l 421 1021 l 421 0 z "},"^":{"ha":901,"x_min":69,"x_max":832,"o":"m 560 1018 l 832 411 l 617 315 l 450 688 l 283 315 l 69 411 l 340 1018 l 560 1018 z "},"_":{"ha":808,"x_min":69,"x_max":739,"o":"m 739 0 l 69 0 l 69 235 l 739 235 l 739 0 z "},"A":{"ha":900,"x_min":1,"x_max":900,"o":"m 653 0 l 613 124 l 292 124 l 250 0 l 1 0 l 349 1019 l 571 1019 l 900 0 l 653 0 m 372 358 l 538 358 l 457 606 l 372 358 z "},"a":{"ha":900,"x_min":1,"x_max":900,"o":"m 653 0 l 613 124 l 292 124 l 250 0 l 1 0 l 349 1019 l 571 1019 l 900 0 l 653 0 m 372 358 l 538 358 l 457 606 l 372 358 z "},"b":{"ha":774,"x_min":69,"x_max":758,"o":"m 618 614 q 721 497 683 565 q 758 347 758 428 q 728 212 758 275 q 644 101 697 149 q 519 27 590 54 q 368 0 449 0 l 69 0 l 69 1024 l 340 1022 q 461 1000 404 1022 q 561 940 518 978 q 628 851 604 901 q 653 742 653 800 q 618 614 653 672 m 304 788 l 304 694 l 342 694 q 397 711 376 696 q 418 742 418 726 q 397 772 418 756 q 340 788 376 788 l 304 788 m 368 236 q 427 245 399 236 q 477 269 456 254 q 511 305 499 285 q 524 347 524 325 q 511 390 524 369 q 477 426 499 411 q 427 451 456 442 q 368 460 399 460 l 343 460 l 340 460 l 304 460 l 304 236 l 368 236 z "},"c":{"ha":871,"x_min":0,"x_max":871,"o":"m 510 1 q 317 38 411 1 q 149 150 224 75 q 38 316 76 224 q 0 511 0 408 q 38 708 0 615 q 149 872 76 800 q 318 985 224 947 q 510 1022 413 1022 q 702 985 608 1022 q 871 872 796 947 l 706 707 q 614 767 665 747 q 510 788 563 788 q 406 767 457 788 q 315 707 356 747 q 256 617 276 667 q 235 511 235 567 q 256 406 235 456 q 315 317 276 357 q 406 256 356 276 q 510 236 457 236 q 614 256 563 236 q 706 317 665 276 l 871 150 q 703 38 796 75 q 510 1 610 1 z "},"d":{"ha":746,"x_min":38,"x_max":761,"o":"m 272 1024 q 463 975 374 1018 q 619 863 553 932 q 723 701 685 793 q 761 506 761 610 q 724 313 761 403 q 620 156 686 224 q 465 47 554 88 q 272 0 376 6 l 38 0 l 38 1025 l 272 1025 l 272 1024 m 272 236 q 373 265 326 242 q 453 323 419 288 q 507 406 488 358 q 526 506 526 453 q 507 609 526 560 q 453 697 488 658 q 372 759 418 735 q 272 789 326 783 l 272 236 z "},"e":{"ha":760,"x_min":54,"x_max":708,"o":"m 708 785 l 289 785 l 289 631 l 629 631 l 629 396 l 289 396 l 289 235 l 708 235 l 708 0 l 54 0 l 54 1018 l 708 1019 l 708 785 z "},"f":{"ha":713,"x_min":69,"x_max":685,"o":"m 685 785 l 304 785 l 304 631 l 606 631 l 606 396 l 304 396 l 304 0 l 69 0 l 69 1019 l 685 1019 l 685 785 z "},"g":{"ha":940,"x_min":-10,"x_max":899,"o":"m 899 571 l 899 0 l 663 0 l 663 25 q 583 5 624 11 q 501 -1 542 -1 q 308 36 403 -1 q 139 149 214 74 q 27 317 64 224 q -10 510 -10 411 q 27 703 -10 608 q 139 872 64 797 q 308 985 214 947 q 501 1022 403 1022 q 694 985 600 1022 q 864 872 789 947 l 697 706 q 606 766 657 746 q 501 786 554 786 q 397 766 449 786 q 306 706 346 746 q 244 614 265 665 q 224 510 224 563 q 244 406 224 457 q 306 314 265 354 q 387 258 342 278 q 480 234 432 238 q 575 243 528 231 q 663 285 622 256 l 663 336 l 458 336 l 458 571 l 899 571 z "},"h":{"ha":858,"x_min":46,"x_max":810,"o":"m 575 1019 l 810 1019 l 810 0 l 575 0 l 575 385 l 281 385 l 281 0 l 46 0 l 46 1019 l 281 1019 l 281 619 l 575 619 l 575 1019 z "},"i":{"ha":374,"x_min":69,"x_max":304,"o":"m 304 0 l 69 0 l 69 1021 l 304 1021 l 304 0 z "},"j":{"ha":832,"x_min":-12,"x_max":763,"o":"m 763 1036 l 763 385 q 731 234 763 304 q 648 112 700 164 q 526 30 596 60 q 376 0 456 0 l 372 0 q 224 31 293 1 q 99 117 154 61 q 16 242 44 172 q -11 392 -12 313 l 224 389 q 267 281 224 326 q 375 235 313 235 q 433 246 406 235 q 482 278 461 257 q 515 326 503 299 q 528 386 528 354 l 528 1036 l 763 1036 z "},"k":{"ha":917,"x_min":69,"x_max":971,"o":"m 971 1021 l 447 510 l 971 0 l 632 0 l 304 321 l 304 0 l 69 0 l 69 1021 l 304 1021 l 304 699 l 633 1021 l 971 1021 z "},"l":{"ha":703,"x_min":69,"x_max":676,"o":"m 676 0 l 69 0 l 69 1021 l 304 1021 l 304 235 l 676 235 l 676 0 z "},"m":{"ha":1053,"x_min":1,"x_max":1051,"o":"m 750 1021 l 992 1021 l 1051 0 l 817 0 l 792 417 l 650 0 l 415 0 l 265 433 l 238 0 l 1 0 l 67 1021 l 308 1021 l 532 382 l 750 1021 z "},"n":{"ha":951,"x_min":69,"x_max":892,"o":"m 657 1019 l 892 1019 l 892 0 l 638 0 l 304 594 l 304 0 l 69 0 l 69 1017 l 325 1017 l 657 424 l 657 1019 z "},"o":{"ha":1021,"x_min":0,"x_max":1021,"o":"m 510 1021 q 708 981 615 1021 q 871 872 801 940 q 981 710 940 803 q 1021 511 1021 617 q 981 313 1021 406 q 871 151 940 219 q 708 42 801 82 q 510 1 615 1 q 311 42 404 1 q 149 151 218 82 q 40 313 81 219 q 0 511 0 406 q 40 710 0 617 q 149 872 81 803 q 311 981 218 940 q 510 1021 404 1021 m 510 236 q 617 258 567 236 q 704 317 667 279 q 763 404 742 354 q 785 511 785 454 q 763 618 785 568 q 704 706 742 668 q 617 765 667 743 q 510 786 567 786 q 403 765 453 786 q 315 706 353 743 q 256 618 278 668 q 235 511 235 568 q 256 404 235 454 q 315 317 278 354 q 403 258 353 279 q 510 236 453 236 z "},"p":{"ha":794,"x_min":69,"x_max":725,"o":"m 725 590 q 692 426 725 503 q 602 290 660 349 q 468 198 544 232 q 304 163 392 164 l 304 0 l 69 0 l 69 1019 l 304 1019 q 468 983 392 1018 q 602 890 544 949 q 692 755 660 832 q 725 590 725 678 m 304 397 q 377 415 343 399 q 436 456 411 431 q 476 517 461 482 q 490 590 490 551 q 476 664 490 629 q 436 724 461 699 q 377 766 411 750 q 304 783 343 782 l 304 397 z "},"q":{"ha":988,"x_min":-15,"x_max":1001,"o":"m 1001 510 q 963 315 1001 406 q 856 154 924 224 l 915 68 l 722 -65 l 657 28 q 577 8 618 15 q 493 1 536 1 q 295 42 388 1 q 134 151 203 82 q 25 312 65 219 q -15 510 -15 404 q 25 708 -15 615 q 134 869 65 800 q 295 978 203 938 q 493 1018 388 1018 q 691 978 599 1018 q 852 869 783 938 q 961 708 921 800 q 1001 510 1001 615 m 493 236 q 514 238 507 236 l 394 411 l 589 544 l 718 356 q 754 427 742 388 q 767 510 767 467 q 745 615 767 565 q 687 703 724 665 q 600 762 650 740 q 493 783 550 783 q 386 762 436 783 q 299 703 336 740 q 241 615 263 665 q 219 510 219 565 q 241 403 219 453 q 299 316 263 353 q 386 258 336 279 q 493 236 436 236 z "},"r":{"ha":851,"x_min":69,"x_max":818,"o":"m 378 264 q 342 260 360 261 q 304 257 324 258 l 304 0 l 69 0 l 69 1017 l 304 1017 q 468 985 392 1015 q 602 903 544 954 q 692 783 660 851 q 725 638 725 715 q 690 485 725 556 q 593 364 656 415 l 818 0 l 542 0 l 378 264 m 304 493 q 376 506 342 494 q 435 538 410 518 q 476 583 461 557 q 490 638 490 608 q 476 692 490 667 q 435 736 461 717 q 376 767 410 756 q 304 781 342 779 l 304 493 z "},"s":{"ha":746,"x_min":26,"x_max":717,"o":"m 372 -19 q 276 -6 324 -19 q 185 35 228 7 q 68 160 110 83 q 26 329 26 238 l 261 329 q 279 265 261 288 q 311 233 297 242 q 365 215 336 217 q 422 226 394 214 q 453 247 442 235 q 472 272 465 260 q 479 294 478 283 q 481 313 481 306 q 479 331 481 319 q 472 354 478 342 q 453 378 465 367 q 422 400 442 390 q 390 413 407 407 q 353 425 372 418 q 281 450 318 436 q 206 488 243 464 q 124 564 157 518 q 76 663 90 610 q 66 772 61 715 q 97 879 71 828 q 160 961 122 926 q 243 1016 197 996 q 342 1040 289 1036 q 449 1031 394 1044 q 544 991 501 1018 q 619 926 588 964 q 667 840 650 888 q 683 742 683 793 l 449 742 q 428 786 449 774 q 393 803 408 799 q 380 805 390 803 q 356 805 369 807 q 329 795 343 803 q 307 771 315 788 q 303 724 296 749 q 331 686 310 700 q 374 666 350 675 q 424 649 397 657 q 472 633 447 642 q 521 614 496 625 q 665 492 613 572 q 717 313 717 411 q 665 135 717 215 q 521 13 613 54 q 447 -12 485 -4 q 372 -19 410 -19 z "},"t":{"ha":685,"x_min":29,"x_max":654,"o":"m 654 1024 l 654 788 l 458 788 l 458 0 l 224 0 l 224 788 l 29 788 l 29 1024 l 654 1024 z "},"u":{"ha":914,"x_min":69,"x_max":844,"o":"m 457 0 q 310 28 379 0 q 186 110 240 57 q 101 235 131 165 q 69 383 71 304 l 69 1021 l 304 1021 l 304 385 q 350 278 304 324 q 458 235 396 235 q 517 247 489 235 q 565 281 544 260 q 597 329 586 301 q 608 389 608 357 l 608 1021 l 843 1021 l 843 390 q 815 240 844 311 q 733 117 785 169 q 610 33 681 64 q 461 0 540 1 l 457 0 z "},"v":{"ha":781,"x_min":-57,"x_max":842,"o":"m 593 1028 l 842 1028 l 494 0 l 272 0 l -57 1028 l 190 1028 l 386 397 l 593 1028 z "},"w":{"ha":1274,"x_min":-42,"x_max":1315,"o":"m 1069 1026 l 1315 1026 l 1014 0 l 782 0 l 647 511 l 531 0 l 297 0 l -42 1026 l 206 1026 l 394 458 l 524 1026 l 754 1026 l 904 461 l 1069 1026 z "},"x":{"ha":921,"x_min":0,"x_max":919,"o":"m 893 1028 l 593 531 l 919 0 l 643 0 l 457 303 l 274 0 l 0 0 l 318 529 l 13 1028 l 288 1028 l 456 756 l 618 1028 l 893 1028 z "},"y":{"ha":969,"x_min":-3,"x_max":900,"o":"m 228 0 l 346 289 l -3 1028 l 257 1028 l 467 585 l 646 1028 l 900 1028 l 482 0 l 228 0 z "},"z":{"ha":907,"x_min":18,"x_max":838,"o":"m 832 0 l 18 0 l 444 792 l 74 792 l 74 1028 l 838 1026 l 411 235 l 832 235 l 832 0 z "},"{":{"ha":490,"x_min":69,"x_max":421,"o":"m 421 0 l 69 0 l 69 1021 l 421 1021 l 421 786 l 304 786 l 304 235 l 421 235 l 421 0 z "},"}":{"ha":490,"x_min":69,"x_max":421,"o":"m 421 0 l 69 0 l 69 235 l 186 235 l 186 786 l 69 786 l 69 1021 l 421 1021 l 421 0 z "},"~":{"ha":808,"x_min":69,"x_max":739,"o":"m 739 392 l 69 393 l 69 628 l 739 626 l 739 392 z "},"Ä":{"ha":900,"x_min":0,"x_max":899,"o":"m 651 0 l 611 124 l 290 124 l 249 0 l 0 0 l 346 1019 l 569 1019 l 899 0 l 651 0 m 371 358 l 535 358 l 456 606 l 371 358 m 397 1314 l 397 1104 l 186 1104 l 186 1314 l 397 1314 m 713 1314 l 713 1104 l 501 1104 l 501 1314 l 713 1314 z "},"Å":{"ha":899,"x_min":0,"x_max":899,"o":"m 899 0 l 651 0 l 611 124 l 290 124 l 249 0 l 0 0 l 318 935 q 244 1007 274 963 q 207 1108 214 1051 q 214 1205 200 1158 q 256 1289 228 1251 q 326 1351 285 1326 q 418 1382 368 1375 q 434 1384 426 1383 q 450 1385 442 1385 q 537 1369 496 1385 q 610 1324 578 1353 q 663 1257 642 1296 q 692 1172 685 1218 q 674 1042 701 1103 q 594 943 647 982 l 899 0 m 443 1188 q 411 1169 424 1185 q 401 1133 399 1153 q 417 1103 404 1115 q 449 1092 431 1092 l 456 1092 q 488 1110 475 1094 q 497 1146 500 1126 q 481 1177 494 1165 q 450 1189 468 1189 q 443 1188 446 1189 m 536 358 l 456 606 l 371 358 l 536 358 z "},"À":{"ha":900,"x_min":1,"x_max":900,"o":"m 653 0 l 900 0 l 571 1019 l 347 1019 l 1 0 l 250 0 l 292 124 l 613 124 l 653 0 m 372 358 l 457 606 l 536 358 l 372 358 m 557 1104 l 346 1104 l 233 1339 l 443 1339 l 557 1104 z "},"Á":{"ha":899,"x_min":0,"x_max":899,"o":"m 651 0 l 611 124 l 290 124 l 249 0 l 0 0 l 346 1019 l 569 1019 l 899 0 l 651 0 m 371 358 l 535 358 l 456 606 l 371 358 m 364 1104 l 476 1339 l 688 1339 l 575 1104 l 364 1104 z "},"Â":{"ha":899,"x_min":0,"x_max":899,"o":"m 651 0 l 611 124 l 290 124 l 249 0 l 0 0 l 346 1019 l 569 1019 l 899 0 l 651 0 m 371 358 l 535 358 l 454 606 l 371 358 m 711 1104 l 500 1104 l 449 1210 l 399 1104 l 188 1104 l 301 1339 l 388 1339 l 388 1339 l 449 1339 l 511 1339 l 511 1339 l 597 1339 l 711 1104 z "},"Ã":{"ha":900,"x_min":1,"x_max":900,"o":"m 653 0 l 613 124 l 292 124 l 250 0 l 1 0 l 347 1019 l 571 1019 l 900 0 l 653 0 m 372 358 l 536 358 l 457 606 l 372 358 m 188 1314 l 714 1314 l 714 1104 l 188 1104 l 188 1314 z "},"Æ":{"ha":1360,"x_min":0,"x_max":1306,"o":"m 651 0 l 611 124 l 290 124 l 249 0 l 0 0 l 346 1019 l 569 1019 l 899 0 l 651 0 m 371 358 l 535 358 l 454 606 l 371 358 m 1306 785 l 886 785 l 886 631 l 1226 631 l 1226 396 l 886 396 l 886 235 l 1306 235 l 1306 0 l 651 0 l 651 1019 l 1306 1019 l 1306 785 z "},"Ç":{"ha":872,"x_min":0,"x_max":872,"o":"m 872 146 q 731 47 808 83 q 571 0 654 11 l 485 -179 l 274 -179 l 368 17 q 252 67 307 35 q 150 146 197 99 q 38 312 76 219 q 0 507 0 404 q 38 703 0 611 q 150 868 76 796 q 319 981 225 943 q 510 1018 413 1018 q 703 981 608 1018 q 872 868 797 943 l 706 703 q 615 763 665 743 q 511 783 564 783 q 407 763 458 783 q 315 703 356 743 q 256 613 276 663 q 235 507 235 563 q 256 402 235 451 q 315 313 276 353 q 407 252 356 272 q 511 232 458 232 q 615 252 564 232 q 706 313 665 272 l 872 146 z "},"È":{"ha":769,"x_min":60,"x_max":714,"o":"m 714 785 l 714 1019 l 60 1019 l 60 0 l 714 0 l 714 235 l 294 235 l 294 396 l 635 396 l 635 631 l 294 631 l 294 785 l 714 785 m 486 1104 l 294 1104 l 163 1339 l 374 1339 l 486 1104 z "},"É":{"ha":756,"x_min":51,"x_max":706,"o":"m 706 785 l 286 785 l 286 631 l 626 631 l 626 396 l 286 396 l 286 235 l 706 235 l 706 0 l 51 0 l 51 1019 l 706 1019 l 706 785 m 268 1104 l 381 1339 l 592 1339 l 478 1104 l 268 1104 z "},"Ê":{"ha":764,"x_min":54,"x_max":708,"o":"m 643 1104 l 432 1104 l 381 1210 l 331 1104 l 119 1104 l 233 1339 l 319 1339 l 319 1339 l 381 1339 l 443 1339 l 443 1339 l 529 1339 l 643 1104 m 708 785 l 289 785 l 289 631 l 629 631 l 629 396 l 289 396 l 289 235 l 708 235 l 708 0 l 54 0 l 54 1019 l 708 1019 l 708 785 z "},"Ë":{"ha":761,"x_min":56,"x_max":710,"o":"m 710 785 l 290 785 l 290 631 l 631 631 l 631 396 l 290 396 l 290 235 l 710 235 l 710 0 l 56 0 l 56 1019 l 710 1019 l 710 785 m 329 1314 l 329 1104 l 119 1104 l 119 1314 l 329 1314 m 646 1314 l 646 1104 l 435 1104 l 435 1314 l 646 1314 z "},"Ì":{"ha":476,"x_min":69,"x_max":407,"o":"m 172 0 l 407 0 l 407 1021 l 172 1021 l 172 0 m 393 1104 l 182 1104 l 69 1340 l 279 1340 l 393 1104 z "},"Í":{"ha":476,"x_min":69,"x_max":407,"o":"m 304 0 l 69 0 l 69 1021 l 304 1021 l 304 0 m 83 1104 l 196 1340 l 407 1340 l 294 1104 l 83 1104 z "},"Î":{"ha":665,"x_min":67,"x_max":589,"o":"m 446 0 l 211 0 l 211 1021 l 446 1021 l 446 0 l 446 0 m 589 1104 l 379 1104 l 328 1210 l 278 1104 l 67 1104 l 179 1339 l 265 1339 l 265 1339 l 328 1339 l 390 1339 l 390 1339 l 476 1339 l 589 1104 z "},"Ï":{"ha":665,"x_min":69,"x_max":596,"o":"m 450 1 l 215 1 l 215 1022 l 450 1022 l 450 1 m 281 1317 l 281 1106 l 69 1106 l 69 1317 l 281 1317 m 596 1317 l 596 1106 l 386 1106 l 386 1317 l 596 1317 z "},"Ñ":{"ha":961,"x_min":69,"x_max":892,"o":"m 657 1019 l 892 1019 l 892 0 l 638 0 l 304 594 l 304 0 l 69 0 l 69 1017 l 325 1017 l 657 424 l 657 1019 m 744 1314 l 744 1103 l 217 1103 l 217 1314 l 744 1314 z "},"Ò":{"ha":1019,"x_min":0,"x_max":1021,"o":"m 510 1021 q 708 981 615 1021 q 871 871 801 940 q 981 708 940 801 q 1021 510 1021 615 q 981 312 1021 404 q 871 150 940 219 q 708 40 801 81 q 510 0 615 0 q 311 40 404 0 q 149 150 218 81 q 40 312 81 219 q 0 510 0 404 q 40 708 0 615 q 149 871 81 801 q 311 981 218 940 q 510 1021 404 1021 m 510 235 q 617 256 567 235 q 704 315 667 278 q 763 403 742 353 q 785 510 785 453 q 763 617 785 567 q 704 706 742 668 q 617 765 667 743 q 510 786 567 786 q 403 765 453 786 q 315 706 353 743 q 256 617 278 668 q 235 510 235 567 q 256 403 235 453 q 315 315 278 353 q 403 256 353 278 q 510 235 453 235 m 407 1104 l 293 1340 l 504 1340 l 617 1104 l 407 1104 z "},"Ó":{"ha":1022,"x_min":1,"x_max":1022,"o":"m 511 1021 q 710 981 617 1021 q 872 871 803 940 q 982 708 942 801 q 1022 510 1022 615 q 982 311 1022 404 q 872 149 942 218 q 710 40 803 81 q 511 0 617 0 q 313 40 406 0 q 151 149 219 81 q 42 311 82 218 q 1 510 1 404 q 42 708 1 615 q 151 871 82 801 q 313 981 219 940 q 511 1021 406 1021 m 511 235 q 618 256 568 235 q 706 315 668 278 q 765 403 743 353 q 786 510 786 453 q 765 617 786 567 q 706 704 743 667 q 618 763 668 742 q 511 785 568 785 q 404 763 454 785 q 317 704 354 742 q 258 617 279 667 q 236 510 236 567 q 258 403 236 453 q 317 315 279 353 q 404 256 354 278 q 511 235 454 235 m 518 1340 l 728 1340 l 615 1104 l 404 1104 l 518 1340 z "},"Ô":{"ha":1021,"x_min":0,"x_max":1021,"o":"m 510 1021 q 708 981 615 1021 q 871 872 801 940 q 981 710 940 803 q 1021 511 1021 617 q 981 313 1021 406 q 871 150 940 219 q 708 40 801 81 q 510 0 615 0 q 311 40 404 0 q 149 150 218 81 q 40 313 81 219 q 0 511 0 406 q 40 710 0 617 q 149 872 81 803 q 311 981 218 940 q 510 1021 404 1021 m 510 236 q 617 258 567 236 q 704 317 667 279 q 763 404 742 354 q 785 511 785 454 q 763 618 785 568 q 704 706 742 668 q 617 765 667 743 q 510 786 567 786 q 403 765 453 786 q 315 706 353 743 q 256 618 278 668 q 235 511 235 568 q 256 404 235 454 q 315 317 278 354 q 403 258 353 279 q 510 236 453 236 m 561 1104 l 510 1211 l 460 1104 l 249 1104 l 363 1340 l 449 1340 l 510 1340 l 572 1340 l 658 1340 l 772 1104 l 561 1104 z "},"Õ":{"ha":1019,"x_min":1,"x_max":1021,"o":"m 511 1022 q 710 982 617 1022 q 872 873 803 942 q 981 711 940 804 q 1021 513 1021 618 q 981 314 1021 407 q 872 152 940 221 q 710 43 803 83 q 511 3 617 3 q 313 43 406 3 q 151 152 219 83 q 42 314 82 221 q 1 513 1 407 q 42 711 1 618 q 151 873 82 804 q 313 982 219 942 q 511 1022 406 1022 m 511 238 q 618 259 568 238 q 706 318 668 281 q 765 406 743 356 q 786 513 786 456 q 765 619 786 569 q 706 707 743 669 q 618 766 668 744 q 511 788 568 788 q 404 766 454 788 q 317 707 354 744 q 258 619 279 669 q 236 513 236 569 q 258 406 236 456 q 317 318 279 356 q 404 259 354 281 q 511 238 454 238 m 775 1106 l 247 1106 l 247 1317 l 775 1317 l 775 1106 z "},"Ö":{"ha":1019,"x_min":-1,"x_max":1019,"o":"m 508 1022 q 707 982 614 1022 q 869 872 800 942 q 979 710 939 803 q 1019 511 1019 617 q 979 313 1019 406 q 869 151 939 221 q 707 42 800 82 q 508 1 614 1 q 310 42 403 1 q 148 151 217 82 q 39 313 79 221 q -1 511 -1 406 q 39 710 -1 617 q 148 872 79 803 q 310 982 217 942 q 508 1022 403 1022 m 508 236 q 615 258 565 236 q 703 317 665 279 q 762 404 740 354 q 783 511 783 454 q 762 619 783 568 q 703 707 740 669 q 615 766 665 744 q 508 788 565 788 q 401 766 451 788 q 314 707 351 744 q 255 619 276 669 q 233 511 233 568 q 255 404 233 454 q 314 317 276 354 q 401 258 351 279 q 508 236 451 236 m 456 1106 l 246 1106 l 246 1315 l 456 1315 l 456 1106 m 772 1106 l 561 1106 l 561 1315 l 772 1315 l 772 1106 z "},"×":{"ha":1035,"x_min":69,"x_max":965,"o":"m 965 729 l 683 447 l 965 167 l 799 0 l 517 282 l 236 0 l 69 167 l 351 449 l 69 729 l 236 896 l 518 614 l 799 896 l 965 729 z "},"Ø":{"ha":1022,"x_min":-4,"x_max":1028,"o":"m 946 778 q 1010 621 992 704 q 1019 454 1028 538 q 973 292 1010 371 q 872 150 936 214 q 730 49 808 86 q 568 3 651 13 q 401 13 485 -6 q 243 76 317 31 l 175 7 l 8 174 l 78 242 q 14 399 32 315 q 5 567 -4 483 q 51 728 14 650 q 151 871 88 807 q 294 972 215 935 q 456 1017 372 1008 q 622 1008 539 1026 q 779 944 706 990 l 849 1013 l 1014 847 l 946 778 m 317 704 q 242 568 258 646 q 253 418 226 490 l 604 769 q 453 779 531 796 q 317 704 375 763 m 706 315 q 781 451 764 374 q 771 603 797 529 l 418 251 q 569 241 492 225 q 706 315 647 257 z "},"Ù":{"ha":915,"x_min":69,"x_max":844,"o":"m 844 1035 l 844 390 q 815 240 844 311 q 734 117 786 169 q 612 33 682 64 q 461 0 542 1 l 457 0 q 310 28 379 0 q 186 111 240 57 q 101 235 131 165 q 69 383 71 304 l 69 1035 l 304 1035 l 304 385 q 350 278 307 321 q 458 235 396 235 q 517 247 489 235 q 565 281 544 260 q 597 329 586 301 q 608 389 608 357 l 608 1035 l 844 1035 m 361 1138 l 247 1374 l 458 1374 l 571 1138 l 361 1138 z "},"Ú":{"ha":915,"x_min":69,"x_max":844,"o":"m 844 1035 l 844 390 q 815 240 844 311 q 734 117 786 169 q 612 33 682 64 q 461 0 542 1 l 457 0 q 310 28 379 0 q 186 111 240 57 q 101 235 131 165 q 69 383 71 304 l 69 1035 l 304 1035 l 304 385 q 350 278 307 321 q 458 235 396 235 q 517 247 489 235 q 565 281 544 260 q 597 329 586 301 q 608 389 608 357 l 608 1035 l 844 1035 m 572 1138 l 361 1138 l 475 1374 l 685 1374 l 572 1138 z "},"Û":{"ha":915,"x_min":68,"x_max":843,"o":"m 506 1107 l 456 1213 l 404 1107 l 193 1107 l 307 1342 l 393 1342 l 456 1342 l 517 1342 l 603 1342 l 717 1107 l 506 1107 m 842 1038 l 842 392 q 813 242 843 313 q 731 119 783 172 q 609 34 679 65 q 460 3 539 3 l 456 3 q 308 31 378 3 q 185 113 239 60 q 99 237 129 167 q 68 385 69 307 l 68 1038 l 303 1038 l 303 386 q 349 281 303 326 q 399 248 371 260 q 457 238 426 236 q 515 250 488 238 q 564 283 543 263 q 596 332 585 304 q 607 392 607 360 l 607 1038 l 842 1038 z "},"Ü":{"ha":915,"x_min":69,"x_max":844,"o":"m 844 1035 l 844 390 q 815 240 844 311 q 734 117 786 169 q 612 33 682 64 q 461 0 542 1 l 457 0 q 310 28 379 0 q 186 111 240 57 q 101 235 131 165 q 69 383 71 304 l 69 1035 l 304 1035 l 304 385 q 350 278 307 321 q 458 235 396 235 q 517 247 489 235 q 565 281 544 260 q 597 329 586 301 q 608 389 608 357 l 608 1035 l 844 1035 m 404 1136 l 193 1136 l 193 1347 l 404 1347 l 404 1136 m 719 1136 l 510 1136 l 510 1347 l 719 1347 l 719 1136 z "},"ß":{"ha":825,"x_min":67,"x_max":756,"o":"m 615 608 q 718 491 681 560 q 756 342 756 422 q 730 218 756 276 q 659 114 704 160 q 553 38 614 68 q 422 -1 493 8 l 422 238 q 493 278 465 250 q 521 342 521 307 q 508 385 521 364 q 475 421 496 406 q 426 445 454 436 q 365 454 397 454 l 340 454 l 338 454 l 301 454 l 303 -72 l 67 -72 l 67 1018 l 338 1017 q 458 994 401 1017 q 558 934 515 972 q 626 845 601 896 q 650 736 650 794 q 615 608 650 667 m 339 689 q 394 706 374 690 q 415 736 415 721 q 394 766 415 750 q 338 782 374 782 l 301 782 l 301 689 l 339 689 z "},"©":{"ha":518,"x_min":56,"x_max":465,"o":"m 296 692 q 205 708 249 692 q 126 761 161 725 q 56 931 56 832 q 74 1023 56 979 q 126 1100 92 1067 q 206 1153 161 1135 q 296 1171 250 1171 q 385 1153 342 1171 q 465 1100 429 1135 l 388 1022 q 344 1050 368 1040 q 296 1060 321 1060 q 247 1050 271 1060 q 204 1022 222 1040 q 165 931 165 983 q 204 839 165 878 q 247 810 222 819 q 296 801 271 801 q 344 810 321 801 q 388 839 368 819 l 465 761 q 385 708 429 725 q 296 692 342 692 z "},"®":{"ha":460,"x_min":56,"x_max":407,"o":"m 200 817 q 165 813 183 813 l 165 692 l 56 692 l 56 1169 l 165 1169 q 243 1155 207 1169 q 306 1117 279 1140 q 349 1060 333 1093 q 364 992 364 1028 q 347 919 364 953 q 301 863 331 886 l 407 692 l 278 692 l 200 817 m 165 924 q 227 944 201 925 q 253 992 253 964 q 227 1038 253 1018 q 165 1058 201 1057 l 165 924 z "},"¶":{"ha":926,"x_min":49,"x_max":868,"o":"m 794 782 l 794 -3 l 560 -3 l 560 782 l 511 782 l 511 -3 l 276 -3 l 276 447 q 186 485 228 458 q 114 549 144 511 q 66 633 83 586 q 49 732 49 679 q 66 831 49 783 q 114 915 83 878 q 186 979 144 953 q 276 1017 228 1006 l 276 1018 l 511 1018 l 560 1018 l 794 1018 l 868 1018 l 868 782 l 794 782 z "},"µ":{"ha":869,"x_min":47,"x_max":821,"o":"m 821 0 l 586 0 l 586 31 q 439 0 517 0 l 435 0 q 282 31 356 0 l 282 -321 l 47 -321 l 47 1035 l 282 1035 l 282 385 q 328 279 282 322 q 436 235 372 235 q 494 247 467 235 q 543 281 522 260 q 575 329 564 301 q 586 389 586 357 l 586 1035 l 821 1035 l 821 0 z "},"¥":{"ha":817,"x_min":33,"x_max":783,"o":"m 768 397 l 524 397 l 524 360 l 768 360 l 768 128 l 524 128 l 524 0 l 292 0 l 293 128 l 50 129 l 50 360 l 293 360 l 293 397 l 50 397 l 50 629 l 207 629 l 33 1018 l 288 1018 l 408 747 l 529 1018 l 783 1018 l 610 629 l 768 629 l 768 397 l 768 397 z "},"‰":{"ha":1725,"x_min":36,"x_max":1678,"o":"m 1088 875 l 282 -14 l 108 144 l 914 1033 l 1088 875 m 286 538 q 199 553 240 538 q 126 598 158 569 q 71 665 93 626 q 43 750 49 704 q 50 847 36 800 q 92 931 64 894 q 163 993 121 968 q 254 1025 204 1018 q 270 1026 263 1026 q 286 1026 278 1026 q 373 1010 332 1026 q 447 967 414 994 q 501 899 479 939 q 528 814 522 860 q 522 717 535 764 q 480 634 508 671 q 410 572 451 597 q 318 540 368 547 q 301 538 310 539 q 286 538 293 538 m 279 831 q 247 812 260 828 q 238 776 235 796 q 253 745 240 757 q 286 733 267 733 q 292 735 290 733 q 324 753 311 738 q 333 789 336 769 q 317 819 331 807 q 286 831 304 831 l 279 831 m 1151 274 q 1145 177 1158 224 q 1103 94 1132 131 q 1033 32 1075 57 q 942 0 992 7 q 925 -2 933 -1 q 908 -3 917 -3 q 822 13 863 -3 q 749 58 781 29 q 694 125 717 86 q 667 210 672 164 q 673 307 660 260 q 715 391 686 354 q 785 453 743 428 q 878 485 828 478 q 893 486 885 486 q 910 486 901 486 q 997 470 956 486 q 1069 426 1038 454 q 1123 359 1101 399 q 1151 274 1144 319 m 915 194 q 947 213 935 197 q 957 249 960 229 q 941 278 954 267 q 910 290 928 290 l 903 290 q 871 272 883 288 q 861 236 858 256 q 877 205 864 217 q 908 193 890 193 q 915 194 914 193 m 1672 274 q 1665 177 1678 224 q 1623 94 1651 131 q 1553 32 1594 57 q 1461 0 1511 7 q 1446 -2 1454 -1 q 1429 -3 1438 -3 q 1342 13 1383 -3 q 1269 58 1301 29 q 1215 125 1238 86 q 1188 210 1193 164 q 1194 307 1181 260 q 1235 391 1207 354 q 1306 453 1264 428 q 1397 485 1347 478 q 1414 486 1406 486 q 1431 486 1422 486 q 1517 470 1476 486 q 1590 426 1558 454 q 1644 359 1622 399 q 1672 274 1665 319 m 1436 194 q 1468 213 1456 197 q 1478 249 1481 229 q 1462 278 1475 267 q 1431 290 1449 290 l 1424 290 q 1392 272 1404 288 q 1382 236 1379 256 q 1398 205 1385 217 q 1429 193 1411 193 q 1436 194 1433 193 z "},"™":{"ha":885,"x_min":69,"x_max":815,"o":"m 788 1171 l 815 692 l 706 692 l 693 886 l 626 692 l 517 692 l 446 894 l 433 692 l 322 692 l 346 1061 l 271 1061 l 271 690 l 161 690 l 161 1061 l 69 1061 l 69 1171 l 363 1171 l 363 1171 l 467 1171 l 571 871 l 674 1171 l 788 1171 l 788 1171 z "},"£":{"ha":897,"x_min":69,"x_max":828,"o":"m 828 238 l 828 0 l 69 0 l 69 217 l 83 224 q 215 346 186 276 l 69 346 l 69 583 l 156 583 q 139 685 139 635 q 166 819 139 756 q 240 928 193 882 q 349 1002 286 975 q 483 1029 413 1029 q 617 1002 554 1029 q 726 928 679 975 q 801 819 774 882 q 828 685 828 756 l 590 685 q 559 760 590 729 q 483 792 528 792 q 441 783 461 792 q 406 760 421 775 q 383 726 392 746 q 375 685 375 707 q 380 660 375 678 q 403 615 385 643 q 419 583 406 611 l 654 583 l 654 346 l 458 346 q 453 322 456 335 q 449 297 451 310 q 439 267 444 282 q 426 238 433 253 l 828 238 z "},"¢":{"ha":751,"x_min":0,"x_max":751,"o":"m 751 206 q 651 131 706 161 q 538 89 596 101 l 538 0 l 325 0 l 326 93 q 222 136 272 108 q 129 206 172 164 q 33 349 67 268 q 0 517 0 429 q 33 685 0 606 q 129 828 67 765 q 222 899 172 871 q 326 942 272 926 l 326 1031 l 538 1031 l 538 946 q 651 903 596 932 q 751 828 706 874 l 608 685 q 530 737 574 719 q 440 754 486 754 q 351 737 394 754 q 272 685 307 719 q 221 608 239 651 q 203 517 203 565 q 221 426 203 469 q 272 349 239 383 q 351 297 307 314 q 440 279 394 279 q 530 297 486 279 q 608 349 574 314 l 751 206 l 751 206 z "},"§":{"ha":622,"x_min":43,"x_max":567,"o":"m 519 396 q 567 249 567 332 q 527 113 567 174 q 418 21 488 53 q 306 -3 367 -3 q 164 39 228 -3 q 75 133 107 75 q 43 261 43 192 l 222 261 q 235 213 222 229 q 260 189 249 196 q 344 183 299 164 q 382 218 375 197 q 389 249 389 239 q 382 280 389 260 q 344 315 375 300 q 319 325 333 321 q 290 335 306 329 q 237 352 265 342 q 181 381 208 363 q 118 439 143 404 q 82 514 93 474 q 74 597 71 554 q 99 678 78 639 q 105 690 101 685 q 111 700 108 694 q 60 820 68 753 q 83 950 51 888 q 131 1013 101 986 q 194 1053 160 1039 q 269 1072 229 1068 q 350 1065 308 1075 q 422 1035 389 1056 q 478 985 456 1014 q 515 921 501 957 q 528 846 528 885 l 349 846 q 333 879 349 869 q 307 892 318 889 q 298 893 306 892 q 280 893 290 894 q 259 886 269 892 q 242 868 249 881 q 239 833 233 851 q 260 804 244 814 q 293 788 275 794 q 331 775 311 782 q 367 763 349 769 q 404 749 385 757 q 513 656 474 717 q 553 521 553 596 q 544 455 553 486 q 519 396 535 424 m 275 532 q 307 517 289 524 q 346 504 325 511 q 357 500 351 501 q 369 496 363 499 q 373 510 372 503 q 374 521 374 517 q 367 552 374 532 q 329 586 360 572 q 305 596 318 592 q 276 606 292 600 q 265 608 268 608 q 260 603 263 606 q 257 596 258 600 q 253 562 247 581 q 275 532 258 543 z "},"•":{"ha":325,"x_min":42,"x_max":283,"o":"m 163 388 q 77 423 113 388 q 42 508 42 458 q 77 595 42 560 q 163 631 113 631 q 248 595 213 631 q 283 508 283 560 q 248 423 283 458 q 163 388 213 388 z "},"|":{"ha":374,"x_min":69,"x_max":304,"o":"m 304 0 l 69 0 l 69 1032 l 304 1032 l 304 0 z "},"÷":{"ha":669,"x_min":0,"x_max":669,"o":"m 335 669 q 249 705 285 669 q 214 792 214 740 q 249 877 214 842 q 335 913 285 913 q 420 877 385 913 q 456 792 456 842 q 420 705 456 740 q 335 669 385 669 m 335 354 q 420 319 385 354 q 456 233 456 283 q 420 148 456 183 q 335 113 385 113 q 249 148 285 113 q 214 233 214 183 q 249 319 214 283 q 335 354 285 354 m 669 394 l 0 394 l 0 631 l 669 629 l 669 394 z "},"€":{"ha":853,"x_min":69,"x_max":783,"o":"m 635 790 q 551 777 590 790 q 478 740 511 764 l 671 742 l 672 526 l 358 525 l 358 513 l 358 500 l 671 501 l 672 286 l 476 285 q 550 248 510 261 q 635 235 590 235 l 783 235 l 783 0 l 635 0 q 491 21 560 0 q 363 79 422 42 q 256 169 303 117 q 176 283 208 221 l 71 283 l 69 499 l 122 499 l 122 513 l 122 524 l 71 524 l 69 739 l 176 739 q 254 856 207 803 q 361 946 301 908 q 490 1004 421 983 q 635 1025 560 1025 l 783 1025 l 783 790 l 635 790 z "},"‚":{"ha":354,"x_min":0,"x_max":313,"o":"m 0 -149 l 113 126 l 313 126 l 200 -149 l 0 -149 z "},"¿":{"ha":811,"x_min":65,"x_max":742,"o":"m 742 418 l 742 347 q 697 174 742 253 q 572 47 651 96 q 490 12 532 24 q 403 0 447 0 q 323 10 363 0 q 247 40 283 19 q 124 152 169 82 q 71 306 78 222 q 108 474 65 393 q 235 617 151 556 q 269 661 254 631 q 283 719 283 692 l 518 719 q 508 635 518 678 q 478 554 497 593 q 432 483 458 515 q 372 426 406 450 q 306 321 303 375 q 360 246 310 274 q 415 236 390 231 q 453 249 439 242 q 492 290 478 264 q 507 347 507 317 l 507 418 l 742 418 m 399 793 q 315 828 350 793 q 281 913 281 863 q 315 996 281 961 q 399 1031 350 1031 q 445 1022 424 1031 q 483 997 467 1013 q 508 959 499 981 q 518 913 518 938 q 508 866 518 888 q 483 828 499 844 q 445 802 467 811 q 399 793 424 793 z "},"–":{"ha":818,"x_min":69,"x_max":739,"o":"m 739 392 l 69 393 l 69 628 l 739 626 l 739 392 z "},"—":{"ha":818,"x_min":69,"x_max":739,"o":"m 739 392 l 69 393 l 69 628 l 739 626 l 739 392 z "},"”":{"ha":674,"x_min":69,"x_max":604,"o":"m 69 551 l 69 1018 l 304 1018 l 304 551 l 69 551 m 369 1018 l 604 1018 l 604 551 l 369 551 l 369 1018 z "},"“":{"ha":674,"x_min":69,"x_max":604,"o":"m 69 551 l 69 1018 l 304 1018 l 304 551 l 69 551 m 369 1018 l 604 1018 l 604 551 l 369 551 l 369 1018 z "},"’":{"ha":374,"x_min":69,"x_max":304,"o":"m 69 1018 l 304 1018 l 304 551 l 69 551 l 69 1018 z "},"‘":{"ha":374,"x_min":69,"x_max":304,"o":"m 69 1018 l 304 1018 l 304 551 l 69 551 l 69 1018 z "},"¤":{"ha":929,"x_min":0,"x_max":929,"o":"m 890 510 q 875 397 890 451 q 832 294 860 343 l 929 199 l 775 44 l 678 142 q 576 99 629 114 q 464 83 522 83 q 353 99 407 83 q 250 142 299 114 l 153 44 l 0 199 l 96 294 q 39 510 39 393 q 96 724 39 625 l 0 821 l 153 974 l 250 878 q 464 935 349 935 q 679 878 581 935 l 775 974 l 929 821 l 832 724 q 875 621 860 675 q 890 510 890 567 m 678 510 q 615 660 678 597 q 464 722 553 722 q 314 660 376 722 q 251 510 251 597 q 314 358 251 421 q 464 296 376 296 q 615 358 553 296 q 678 510 678 421 z "},"œ":{"ha":1511,"x_min":0,"x_max":1436,"o":"m 510 1017 q 708 976 615 1017 q 871 867 801 936 q 981 704 940 797 q 1021 506 1021 611 q 981 307 1021 400 q 871 145 940 214 q 708 36 801 76 q 510 -4 615 -4 q 311 36 404 -4 q 149 145 218 76 q 40 307 81 214 q 0 506 0 400 q 40 704 0 611 q 149 867 81 797 q 311 976 218 936 q 510 1017 404 1017 m 510 231 q 617 252 567 231 q 704 311 667 274 q 763 399 742 349 q 785 506 785 449 q 763 613 785 563 q 704 700 742 663 q 617 759 667 738 q 510 781 567 781 q 403 759 453 781 q 315 700 353 738 q 256 613 278 663 q 235 506 235 563 q 256 399 235 449 q 315 311 278 349 q 403 252 353 274 q 510 231 453 231 m 1018 785 l 1018 631 l 1358 631 l 1358 396 l 1018 396 l 1018 235 l 1436 235 l 1436 0 l 783 0 l 783 1019 l 1436 1019 l 1436 785 l 1018 785 z "},"Œ":{"ha":1511,"x_min":0,"x_max":1436,"o":"m 510 1017 q 708 976 615 1017 q 871 867 801 936 q 981 704 940 797 q 1021 506 1021 611 q 981 307 1021 400 q 871 145 940 214 q 708 36 801 76 q 510 -4 615 -4 q 311 36 404 -4 q 149 145 218 76 q 40 307 81 214 q 0 506 0 400 q 40 704 0 611 q 149 867 81 797 q 311 976 218 936 q 510 1017 404 1017 m 510 231 q 617 252 567 231 q 704 311 667 274 q 763 399 742 349 q 785 506 785 449 q 763 613 785 563 q 704 700 742 663 q 617 759 667 738 q 510 781 567 781 q 403 759 453 781 q 315 700 353 738 q 256 613 278 663 q 235 506 235 563 q 256 399 235 449 q 315 311 278 349 q 403 252 353 274 q 510 231 453 231 m 1018 785 l 1018 631 l 1358 631 l 1358 396 l 1018 396 l 1018 235 l 1436 235 l 1436 0 l 783 0 l 783 1019 l 1436 1019 l 1436 785 l 1018 785 z "},"¡":{"ha":382,"x_min":69,"x_max":311,"o":"m 190 776 q 105 812 140 776 q 69 897 69 847 q 105 983 69 947 q 190 1018 140 1018 q 276 983 240 1018 q 311 897 311 947 q 276 812 311 847 q 190 776 240 776 m 308 667 l 308 -21 l 72 -21 l 72 667 l 308 667 z "},"ÿ":{"ha":969,"x_min":-3,"x_max":900,"o":"m 228 0 l 346 289 l -3 1028 l 257 1028 l 467 585 l 646 1028 l 900 1028 l 482 0 l 228 0 z "},"à":{"ha":900,"x_min":1,"x_max":900,"o":"m 653 0 l 900 0 l 571 1019 l 347 1019 l 1 0 l 250 0 l 292 124 l 613 124 l 653 0 m 372 358 l 457 606 l 536 358 l 372 358 m 557 1104 l 346 1104 l 233 1339 l 443 1339 l 557 1104 z "},"á":{"ha":899,"x_min":0,"x_max":899,"o":"m 651 0 l 611 124 l 290 124 l 249 0 l 0 0 l 346 1019 l 569 1019 l 899 0 l 651 0 m 371 358 l 535 358 l 456 606 l 371 358 m 364 1104 l 476 1339 l 688 1339 l 575 1104 l 364 1104 z "},"â":{"ha":899,"x_min":0,"x_max":899,"o":"m 651 0 l 611 124 l 290 124 l 249 0 l 0 0 l 346 1019 l 569 1019 l 899 0 l 651 0 m 371 358 l 535 358 l 454 606 l 371 358 m 711 1104 l 500 1104 l 449 1210 l 399 1104 l 188 1104 l 301 1339 l 388 1339 l 388 1339 l 449 1339 l 511 1339 l 511 1339 l 597 1339 l 711 1104 z "},"ã":{"ha":900,"x_min":1,"x_max":900,"o":"m 653 0 l 613 124 l 292 124 l 250 0 l 1 0 l 347 1019 l 571 1019 l 900 0 l 653 0 m 372 358 l 536 358 l 457 606 l 372 358 m 188 1314 l 714 1314 l 714 1104 l 188 1104 l 188 1314 z "},"ä":{"ha":900,"x_min":0,"x_max":899,"o":"m 651 0 l 611 124 l 290 124 l 249 0 l 0 0 l 346 1019 l 569 1019 l 899 0 l 651 0 m 371 358 l 535 358 l 456 606 l 371 358 m 397 1314 l 397 1104 l 186 1104 l 186 1314 l 397 1314 m 713 1314 l 713 1104 l 501 1104 l 501 1314 l 713 1314 z "},"å":{"ha":899,"x_min":0,"x_max":899,"o":"m 899 0 l 651 0 l 611 124 l 290 124 l 249 0 l 0 0 l 318 935 q 244 1007 274 963 q 207 1108 214 1051 q 214 1205 200 1158 q 256 1289 228 1251 q 326 1351 285 1326 q 418 1382 368 1375 q 434 1384 426 1383 q 450 1385 442 1385 q 537 1369 496 1385 q 610 1324 578 1353 q 663 1257 642 1296 q 692 1172 685 1218 q 674 1042 701 1103 q 594 943 647 982 l 899 0 m 443 1188 q 411 1169 424 1185 q 401 1133 399 1153 q 417 1103 404 1115 q 449 1092 431 1092 l 456 1092 q 488 1110 475 1094 q 497 1146 500 1126 q 481 1177 494 1165 q 450 1189 468 1189 q 443 1188 446 1189 m 536 358 l 456 606 l 371 358 l 536 358 z "},"æ":{"ha":1360,"x_min":0,"x_max":1306,"o":"m 651 0 l 611 124 l 290 124 l 249 0 l 0 0 l 346 1019 l 569 1019 l 899 0 l 651 0 m 371 358 l 535 358 l 454 606 l 371 358 m 1306 785 l 886 785 l 886 631 l 1226 631 l 1226 396 l 886 396 l 886 235 l 1306 235 l 1306 0 l 651 0 l 651 1019 l 1306 1019 l 1306 785 z "},"ç":{"ha":872,"x_min":0,"x_max":872,"o":"m 872 146 q 731 47 808 83 q 571 0 654 11 l 485 -179 l 274 -179 l 368 17 q 252 67 307 35 q 150 146 197 99 q 38 312 76 219 q 0 507 0 404 q 38 703 0 611 q 150 868 76 796 q 319 981 225 943 q 510 1018 413 1018 q 703 981 608 1018 q 872 868 797 943 l 706 703 q 615 763 665 743 q 511 783 564 783 q 407 763 458 783 q 315 703 356 743 q 256 613 276 663 q 235 507 235 563 q 256 402 235 451 q 315 313 276 353 q 407 252 356 272 q 511 232 458 232 q 615 252 564 232 q 706 313 665 272 l 872 146 z "},"è":{"ha":769,"x_min":60,"x_max":714,"o":"m 714 785 l 714 1019 l 60 1019 l 60 0 l 714 0 l 714 235 l 294 235 l 294 396 l 635 396 l 635 631 l 294 631 l 294 785 l 714 785 m 486 1104 l 294 1104 l 163 1339 l 374 1339 l 486 1104 z "},"é":{"ha":756,"x_min":51,"x_max":706,"o":"m 706 785 l 286 785 l 286 631 l 626 631 l 626 396 l 286 396 l 286 235 l 706 235 l 706 0 l 51 0 l 51 1019 l 706 1019 l 706 785 m 268 1104 l 381 1339 l 592 1339 l 478 1104 l 268 1104 z "},"ê":{"ha":764,"x_min":54,"x_max":708,"o":"m 643 1104 l 432 1104 l 381 1210 l 331 1104 l 119 1104 l 233 1339 l 319 1339 l 319 1339 l 381 1339 l 443 1339 l 443 1339 l 529 1339 l 643 1104 m 708 785 l 289 785 l 289 631 l 629 631 l 629 396 l 289 396 l 289 235 l 708 235 l 708 0 l 54 0 l 54 1019 l 708 1019 l 708 785 z "},"ë":{"ha":761,"x_min":56,"x_max":710,"o":"m 710 785 l 290 785 l 290 631 l 631 631 l 631 396 l 290 396 l 290 235 l 710 235 l 710 0 l 56 0 l 56 1019 l 710 1019 l 710 785 m 329 1314 l 329 1104 l 119 1104 l 119 1314 l 329 1314 m 646 1314 l 646 1104 l 435 1104 l 435 1314 l 646 1314 z "},"ì":{"ha":476,"x_min":69,"x_max":407,"o":"m 172 0 l 407 0 l 407 1021 l 172 1021 l 172 0 m 393 1104 l 182 1104 l 69 1340 l 279 1340 l 393 1104 z "},"í":{"ha":476,"x_min":69,"x_max":407,"o":"m 304 0 l 69 0 l 69 1021 l 304 1021 l 304 0 m 83 1104 l 196 1340 l 407 1340 l 294 1104 l 83 1104 z "},"î":{"ha":665,"x_min":67,"x_max":589,"o":"m 446 0 l 211 0 l 211 1021 l 446 1021 l 446 0 l 446 0 m 589 1104 l 379 1104 l 328 1210 l 278 1104 l 67 1104 l 179 1339 l 265 1339 l 265 1339 l 328 1339 l 390 1339 l 390 1339 l 476 1339 l 589 1104 z "},"ï":{"ha":665,"x_min":69,"x_max":596,"o":"m 450 1 l 215 1 l 215 1022 l 450 1022 l 450 1 m 281 1317 l 281 1106 l 69 1106 l 69 1317 l 281 1317 m 596 1317 l 596 1106 l 386 1106 l 386 1317 l 596 1317 z "},"ñ":{"ha":961,"x_min":69,"x_max":892,"o":"m 657 1019 l 892 1019 l 892 0 l 638 0 l 304 594 l 304 0 l 69 0 l 69 1017 l 325 1017 l 657 424 l 657 1019 m 744 1314 l 744 1103 l 217 1103 l 217 1314 l 744 1314 z "},"ò":{"ha":1019,"x_min":0,"x_max":1021,"o":"m 510 1021 q 708 981 615 1021 q 871 871 801 940 q 981 708 940 801 q 1021 510 1021 615 q 981 312 1021 404 q 871 150 940 219 q 708 40 801 81 q 510 0 615 0 q 311 40 404 0 q 149 150 218 81 q 40 312 81 219 q 0 510 0 404 q 40 708 0 615 q 149 871 81 801 q 311 981 218 940 q 510 1021 404 1021 m 510 235 q 617 256 567 235 q 704 315 667 278 q 763 403 742 353 q 785 510 785 453 q 763 617 785 567 q 704 706 742 668 q 617 765 667 743 q 510 786 567 786 q 403 765 453 786 q 315 706 353 743 q 256 617 278 668 q 235 510 235 567 q 256 403 235 453 q 315 315 278 353 q 403 256 353 278 q 510 235 453 235 m 407 1104 l 293 1340 l 504 1340 l 617 1104 l 407 1104 z "},"ó":{"ha":1022,"x_min":1,"x_max":1022,"o":"m 511 1021 q 710 981 617 1021 q 872 871 803 940 q 982 708 942 801 q 1022 510 1022 615 q 982 311 1022 404 q 872 149 942 218 q 710 40 803 81 q 511 0 617 0 q 313 40 406 0 q 151 149 219 81 q 42 311 82 218 q 1 510 1 404 q 42 708 1 615 q 151 871 82 801 q 313 981 219 940 q 511 1021 406 1021 m 511 235 q 618 256 568 235 q 706 315 668 278 q 765 403 743 353 q 786 510 786 453 q 765 617 786 567 q 706 704 743 667 q 618 763 668 742 q 511 785 568 785 q 404 763 454 785 q 317 704 354 742 q 258 617 279 667 q 236 510 236 567 q 258 403 236 453 q 317 315 279 353 q 404 256 354 278 q 511 235 454 235 m 518 1340 l 728 1340 l 615 1104 l 404 1104 l 518 1340 z "},"ô":{"ha":1021,"x_min":0,"x_max":1021,"o":"m 510 1021 q 708 981 615 1021 q 871 872 801 940 q 981 710 940 803 q 1021 511 1021 617 q 981 313 1021 406 q 871 150 940 219 q 708 40 801 81 q 510 0 615 0 q 311 40 404 0 q 149 150 218 81 q 40 313 81 219 q 0 511 0 406 q 40 710 0 617 q 149 872 81 803 q 311 981 218 940 q 510 1021 404 1021 m 510 236 q 617 258 567 236 q 704 317 667 279 q 763 404 742 354 q 785 511 785 454 q 763 618 785 568 q 704 706 742 668 q 617 765 667 743 q 510 786 567 786 q 403 765 453 786 q 315 706 353 743 q 256 618 278 668 q 235 511 235 568 q 256 404 235 454 q 315 317 278 354 q 403 258 353 279 q 510 236 453 236 m 561 1104 l 510 1211 l 460 1104 l 249 1104 l 363 1340 l 449 1340 l 510 1340 l 572 1340 l 658 1340 l 772 1104 l 561 1104 z "},"õ":{"ha":1019,"x_min":1,"x_max":1021,"o":"m 511 1022 q 710 982 617 1022 q 872 873 803 942 q 981 711 940 804 q 1021 513 1021 618 q 981 314 1021 407 q 872 152 940 221 q 710 43 803 83 q 511 3 617 3 q 313 43 406 3 q 151 152 219 83 q 42 314 82 221 q 1 513 1 407 q 42 711 1 618 q 151 873 82 804 q 313 982 219 942 q 511 1022 406 1022 m 511 238 q 618 259 568 238 q 706 318 668 281 q 765 406 743 356 q 786 513 786 456 q 765 619 786 569 q 706 707 743 669 q 618 766 668 744 q 511 788 568 788 q 404 766 454 788 q 317 707 354 744 q 258 619 279 669 q 236 513 236 569 q 258 406 236 456 q 317 318 279 356 q 404 259 354 281 q 511 238 454 238 m 775 1106 l 247 1106 l 247 1317 l 775 1317 l 775 1106 z "},"ö":{"ha":1019,"x_min":-1,"x_max":1019,"o":"m 508 1022 q 707 982 614 1022 q 869 872 800 942 q 979 710 939 803 q 1019 511 1019 617 q 979 313 1019 406 q 869 151 939 221 q 707 42 800 82 q 508 1 614 1 q 310 42 403 1 q 148 151 217 82 q 39 313 79 221 q -1 511 -1 406 q 39 710 -1 617 q 148 872 79 803 q 310 982 217 942 q 508 1022 403 1022 m 508 236 q 615 258 565 236 q 703 317 665 279 q 762 404 740 354 q 783 511 783 454 q 762 619 783 568 q 703 707 740 669 q 615 766 665 744 q 508 788 565 788 q 401 766 451 788 q 314 707 351 744 q 255 619 276 669 q 233 511 233 568 q 255 404 233 454 q 314 317 276 354 q 401 258 351 279 q 508 236 451 236 m 456 1106 l 246 1106 l 246 1315 l 456 1315 l 456 1106 m 772 1106 l 561 1106 l 561 1315 l 772 1315 l 772 1106 z "},"ø":{"ha":1022,"x_min":-4,"x_max":1028,"o":"m 946 778 q 1010 621 992 704 q 1019 454 1028 538 q 973 292 1010 371 q 872 150 936 214 q 730 49 808 86 q 568 3 651 13 q 401 13 485 -6 q 243 76 317 31 l 175 7 l 8 174 l 78 242 q 14 399 32 315 q 5 567 -4 483 q 51 728 14 650 q 151 871 88 807 q 294 972 215 935 q 456 1017 372 1008 q 622 1008 539 1026 q 779 944 706 990 l 849 1013 l 1014 847 l 946 778 m 317 704 q 242 568 258 646 q 253 418 226 490 l 604 769 q 453 779 531 796 q 317 704 375 763 m 706 315 q 781 451 764 374 q 771 603 797 529 l 418 251 q 569 241 492 225 q 706 315 647 257 z "},"ù":{"ha":915,"x_min":69,"x_max":844,"o":"m 844 1035 l 844 390 q 815 240 844 311 q 734 117 786 169 q 612 33 682 64 q 461 0 542 1 l 457 0 q 310 28 379 0 q 186 111 240 57 q 101 235 131 165 q 69 383 71 304 l 69 1035 l 304 1035 l 304 385 q 350 278 307 321 q 458 235 396 235 q 517 247 489 235 q 565 281 544 260 q 597 329 586 301 q 608 389 608 357 l 608 1035 l 844 1035 m 361 1138 l 247 1374 l 458 1374 l 571 1138 l 361 1138 z "},"ú":{"ha":915,"x_min":69,"x_max":844,"o":"m 844 1035 l 844 390 q 815 240 844 311 q 734 117 786 169 q 612 33 682 64 q 461 0 542 1 l 457 0 q 310 28 379 0 q 186 111 240 57 q 101 235 131 165 q 69 383 71 304 l 69 1035 l 304 1035 l 304 385 q 350 278 307 321 q 458 235 396 235 q 517 247 489 235 q 565 281 544 260 q 597 329 586 301 q 608 389 608 357 l 608 1035 l 844 1035 m 572 1138 l 361 1138 l 475 1374 l 685 1374 l 572 1138 z "},"û":{"ha":915,"x_min":68,"x_max":843,"o":"m 506 1107 l 456 1213 l 404 1107 l 193 1107 l 307 1342 l 393 1342 l 456 1342 l 517 1342 l 603 1342 l 717 1107 l 506 1107 m 842 1038 l 842 392 q 813 242 843 313 q 731 119 783 172 q 609 34 679 65 q 460 3 539 3 l 456 3 q 308 31 378 3 q 185 113 239 60 q 99 237 129 167 q 68 385 69 307 l 68 1038 l 303 1038 l 303 386 q 349 281 303 326 q 399 248 371 260 q 457 238 426 236 q 515 250 488 238 q 564 283 543 263 q 596 332 585 304 q 607 392 607 360 l 607 1038 l 842 1038 z "},"ü":{"ha":915,"x_min":69,"x_max":844,"o":"m 844 1035 l 844 390 q 815 240 844 311 q 734 117 786 169 q 612 33 682 64 q 461 0 542 1 l 457 0 q 310 28 379 0 q 186 111 240 57 q 101 235 131 165 q 69 383 71 304 l 69 1035 l 304 1035 l 304 385 q 350 278 307 321 q 458 235 396 235 q 517 247 489 235 q 565 281 544 260 q 597 329 586 301 q 608 389 608 357 l 608 1035 l 844 1035 m 404 1136 l 193 1136 l 193 1347 l 404 1347 l 404 1136 m 719 1136 l 510 1136 l 510 1347 l 719 1347 l 719 1136 z "},"⁄":{"ha":511,"x_min":69,"x_max":442,"o":"m 307 0 l 69 0 l 204 1032 l 442 1032 l 307 0 z "},"°":{"ha":758,"x_min":69,"x_max":689,"o":"m 379 1018 q 499 994 443 1018 q 598 927 556 969 q 665 828 640 885 q 689 708 689 772 q 665 588 689 644 q 598 490 640 532 q 499 423 556 447 q 379 399 443 399 q 259 423 315 399 q 160 490 203 447 q 94 588 118 532 q 69 708 69 644 q 94 828 69 772 q 160 927 118 885 q 259 994 203 969 q 379 1018 315 1018 m 379 633 q 433 655 411 633 q 454 708 454 676 q 433 762 454 740 q 379 783 411 783 q 326 762 347 783 q 304 708 304 740 q 326 655 304 676 q 379 633 347 633 z "},"º":{"ha":758,"x_min":69,"x_max":689,"o":"m 379 1018 q 499 994 443 1018 q 598 927 556 969 q 665 828 640 885 q 689 708 689 772 q 665 588 689 644 q 598 490 640 532 q 499 423 556 447 q 379 399 443 399 q 259 423 315 399 q 160 490 203 447 q 94 588 118 532 q 69 708 69 644 q 94 828 69 772 q 160 927 118 885 q 259 994 203 969 q 379 1018 315 1018 m 379 633 q 433 655 411 633 q 454 708 454 676 q 433 762 454 740 q 379 783 411 783 q 326 762 347 783 q 304 708 304 740 q 326 655 304 676 q 379 633 347 633 z "},"`":{"ha":415,"x_min":42,"x_max":365,"o":"m 365 785 l 154 785 l 42 1021 l 251 1021 l 365 785 l 365 785 z "},"˚":{"ha":758,"x_min":69,"x_max":689,"o":"m 379 1018 q 499 994 443 1018 q 598 927 556 969 q 665 828 640 885 q 689 708 689 772 q 665 588 689 644 q 598 490 640 532 q 499 423 556 447 q 379 399 443 399 q 259 423 315 399 q 160 490 203 447 q 94 588 118 532 q 69 708 69 644 q 94 828 69 772 q 160 927 118 885 q 259 994 203 969 q 379 1018 315 1018 m 379 633 q 433 655 411 633 q 454 708 454 676 q 433 762 454 740 q 379 783 411 783 q 326 762 347 783 q 304 708 304 740 q 326 655 304 676 q 379 633 347 633 z "},"˜":{"ha":778,"x_min":56,"x_max":725,"o":"m 725 738 l 56 739 l 56 974 l 725 972 l 725 738 z "},"‹":{"ha":842,"x_min":69,"x_max":772,"o":"m 69 619 l 676 890 l 772 676 l 400 510 l 772 343 l 676 129 l 69 400 l 69 619 z "},"›":{"ha":842,"x_min":69,"x_max":772,"o":"m 772 400 l 165 129 l 69 343 l 442 510 l 69 676 l 165 890 l 772 619 l 772 400 z "},"ƒ":{"ha":713,"x_min":69,"x_max":685,"o":"m 685 785 l 304 785 l 304 631 l 606 631 l 606 396 l 304 396 l 304 0 l 69 0 l 69 1019 l 685 1019 l 685 785 z "},"!":{"ha":382,"x_min":69,"x_max":313,"o":"m 190 242 q 277 206 242 242 q 313 121 313 171 q 277 35 313 71 q 190 0 242 0 q 105 35 140 0 q 69 121 69 71 q 105 206 69 171 q 190 242 140 242 m 74 351 l 74 1039 l 308 1039 l 308 351 l 74 351 z "},"\"":{"ha":674,"x_min":69,"x_max":604,"o":"m 69 551 l 69 1018 l 304 1018 l 304 551 l 69 551 m 369 1018 l 604 1018 l 604 551 l 369 551 l 369 1018 z "},"#":{"ha":1049,"x_min":69,"x_max":979,"o":"m 932 442 l 933 207 l 769 207 l 742 0 l 504 0 l 532 206 l 435 206 l 408 0 l 171 0 l 199 206 l 71 204 l 69 439 l 229 440 l 247 583 l 117 583 l 115 818 l 278 818 l 308 1044 l 544 1044 l 515 819 l 611 819 l 642 1044 l 878 1044 l 849 821 l 978 821 l 979 586 l 818 585 l 800 442 l 932 442 m 467 440 l 563 442 l 581 585 l 485 583 l 467 440 z "},"·":{"ha":325,"x_min":42,"x_max":283,"o":"m 163 388 q 77 423 113 388 q 42 508 42 458 q 77 595 42 560 q 163 631 113 631 q 248 595 213 631 q 283 508 283 560 q 248 423 283 458 q 163 388 213 388 z "},"´":{"ha":408,"x_min":42,"x_max":365,"o":"m 42 785 l 154 1021 l 365 1021 l 253 785 l 42 785 l 42 785 z "},"ˆ":{"ha":679,"x_min":76,"x_max":600,"o":"m 389 1104 l 338 1210 l 288 1104 l 76 1104 l 190 1339 l 276 1339 l 276 1339 l 338 1339 l 400 1339 l 400 1339 l 486 1339 l 600 1104 l 389 1104 z "},"˝":{"ha":674,"x_min":69,"x_max":604,"o":"m 69 551 l 69 1018 l 304 1018 l 304 551 l 69 551 m 369 1018 l 604 1018 l 604 551 l 369 551 l 369 1018 z "},"˙":{"ha":374,"x_min":69,"x_max":304,"o":"m 69 1018 l 304 1018 l 304 551 l 69 551 l 69 1018 z "}}}
